<?xml version="1.0" encoding="UTF-8"?>
<svg width="129px" height="41px" viewBox="0 0 129 41" version="1.1" xmlns="http://www.w3.org/2000/svg" xmlns:xlink="http://www.w3.org/1999/xlink">
    <title>feedzai_logo_color</title>
    <g id="Footer_header" stroke="none" stroke-width="1" fill="none" fill-rule="evenodd">
        <g id="Header_footer" transform="translate(-20.000000, -25.000000)" fill-rule="nonzero">
            <g id="Header">
                <g id="Navigation">
                    <g id="feedzai_logo_color" transform="translate(20.000000, 25.000000)">
                        <g id="Group" transform="translate(0.000000, 9.920000)" fill="#3DA1DA">
                            <path d="M7.168,4.448 C7.616,3.936 8.208,3.68 8.944,3.68 C9.264,3.68 9.568,3.712 9.84,3.792 C10.112,3.856 10.384,3.936 10.64,4.032 L12.224,0.544 C11.824,0.352 11.376,0.224 10.864,0.16 C10.336,0.08 9.792,0.048 9.264,0.048 C7.104,0.048 5.408,0.72 4.208,2.08 C3.152,3.264 2.64,4.768 2.64,6.576 L2.64,9.616 L0.128,9.616 L0.128,13.248 L2.64,13.248 L2.64,30.08 L6.48,30.08 L6.48,13.232 L10.32,13.232 L10.32,9.6 L6.48,9.6 L6.48,6.32 C6.464,5.616 6.704,4.976 7.168,4.448 Z" id="Path"></path>
                            <path d="M28.096,7.792 C26.272,6.192 24.272,5.376 22.064,5.376 C19.088,5.376 16.672,6.368 14.816,8.336 C13.088,10.16 12.24,12.336 12.24,14.864 C12.24,17.424 13.104,19.616 14.816,21.424 C16.672,23.376 19.104,24.352 22.064,24.352 C23.648,24.352 25.152,23.952 26.592,23.168 C28.032,22.4 29.296,21.328 30.368,19.952 L27.12,18.144 C25.728,20.016 24,20.944 21.968,20.944 C20.544,20.944 19.28,20.496 18.192,19.584 C17.072,18.672 16.528,17.568 16.528,16.24 L31.344,16.24 L31.344,15.504 C31.328,12.288 30.256,9.728 28.096,7.792 Z M16.512,13.024 C16.816,11.696 17.424,10.672 18.352,9.936 C19.248,9.216 20.32,8.848 21.568,8.848 C22.816,8.848 23.92,9.2 24.848,9.888 C25.744,10.608 26.416,11.648 26.832,13.024 L16.512,13.024 Z" id="Shape"></path>
                            <path d="M50,7.792 C48.192,6.192 46.176,5.376 43.968,5.376 C40.992,5.376 38.576,6.368 36.72,8.336 C34.992,10.16 34.144,12.336 34.144,14.864 C34.144,17.424 35.008,19.616 36.72,21.424 C38.576,23.376 41.008,24.352 43.968,24.352 C45.552,24.352 47.056,23.952 48.496,23.168 C49.936,22.4 51.2,21.328 52.272,19.952 L49.024,18.144 C47.632,20.016 45.904,20.944 43.856,20.944 C42.432,20.944 41.168,20.496 40.08,19.584 C38.96,18.672 38.416,17.568 38.416,16.24 L53.232,16.24 L53.232,15.504 C53.232,12.288 52.144,9.728 50,7.792 Z M38.416,13.024 C38.72,11.696 39.328,10.672 40.256,9.936 C41.152,9.216 42.224,8.848 43.472,8.848 C44.72,8.848 45.824,9.2 46.752,9.888 C47.648,10.608 48.32,11.648 48.736,13.024 L38.416,13.024 Z" id="Shape"></path>
                            <path d="M70.848,8.08 C70.304,7.264 69.552,6.608 68.576,6.128 C67.584,5.632 66.432,5.392 65.168,5.392 C62.4,5.392 60.096,6.416 58.256,8.464 C56.576,10.32 55.744,12.464 55.744,14.88 C55.744,17.376 56.56,19.536 58.192,21.376 C59.968,23.376 62.224,24.368 64.992,24.368 C66.224,24.368 67.36,24.128 68.416,23.632 C69.44,23.168 70.272,22.512 70.928,21.68 L70.928,23.872 L74.752,23.872 L74.752,0.544 L70.928,0.544 L70.848,8.08 Z M69.424,18.992 C68.304,20.128 66.992,20.688 65.488,20.688 C63.92,20.688 62.592,20.128 61.472,18.992 C60.352,17.856 59.792,16.48 59.792,14.864 C59.792,13.248 60.352,11.856 61.472,10.72 C62.56,9.6 63.904,9.04 65.488,9.04 C67.024,9.04 68.336,9.6 69.424,10.752 C70.512,11.888 71.072,13.264 71.072,14.864 C71.056,16.496 70.512,17.872 69.424,18.992 Z" id="Shape"></path>
                            <polygon id="Path" points="78.592 5.872 78.592 9.552 86.48 9.552 77.856 23.872 92.688 23.872 92.688 20.24 84.24 20.24 92.88 5.872"></polygon>
                            <path d="M109.776,8.08 C109.232,7.264 108.48,6.608 107.504,6.128 C106.512,5.632 105.376,5.392 104.096,5.392 C101.328,5.392 99.024,6.416 97.184,8.464 C95.504,10.32 94.672,12.464 94.672,14.88 C94.672,17.376 95.488,19.536 97.12,21.376 C98.88,23.376 101.152,24.368 103.92,24.368 C105.152,24.368 106.288,24.128 107.328,23.632 C108.352,23.168 109.184,22.512 109.84,21.68 L109.84,23.872 L113.68,23.872 L113.68,5.872 L109.84,5.872 L109.776,8.08 Z M108.336,18.992 C107.216,20.128 105.904,20.688 104.4,20.688 C102.832,20.688 101.504,20.128 100.384,18.992 C99.264,17.856 98.704,16.48 98.704,14.864 C98.704,13.248 99.264,11.856 100.384,10.72 C101.472,9.6 102.816,9.04 104.4,9.04 C105.936,9.04 107.248,9.6 108.336,10.752 C109.424,11.888 109.984,13.264 109.984,14.864 C109.984,16.496 109.44,17.872 108.336,18.992 Z" id="Shape"></path>
                            <rect id="Rectangle" x="118.624" y="5.872" width="3.84" height="18"></rect>
                        </g>
                        <path d="M128.528,0 L127.232,11.872 L124.24,9.088 C123.776,9.36 117.056,13.232 112.176,9.36 C112.176,9.36 116,10.496 120.032,5.168 L116.784,2.144 L128.528,0 Z" id="Path" fill="#8EC958"></path>
                        <path d="M128.528,0 L127.232,11.872 L124.24,9.088 C123.776,9.36 117.056,13.232 112.176,9.36 C112.176,9.36 116,10.496 120.032,5.168 L116.784,2.144 L128.528,0 Z" id="Path" fill="#69B745"></path>
                    </g>
                </g>
            </g>
        </g>
    </g>
</svg>